<?xml version="1.0" encoding="UTF-8"?>
<svg version="1.1" xmlns="http://www.w3.org/2000/svg" width="620" height="255">
<path d="M0 0 C204.6 0 409.2 0 620 0 C620 84.15 620 168.3 620 255 C415.4 255 210.8 255 0 255 C0 170.85 0 86.7 0 0 Z " fill="#151617" transform="translate(0,0)"/>
<path d="M0 0 C11.50875 -0.12375 11.50875 -0.12375 23.25 -0.25 C25.64668945 -0.28641602 28.04337891 -0.32283203 30.51269531 -0.36035156 C43.6350114 -0.47715565 55.60224635 -0.53174519 66.25 8.23046875 C72.59328398 14.64454831 76.00174448 21.63187485 76.375 30.625 C76.20698039 39.07848661 74.10287746 48.11534503 68.109375 54.40234375 C59.96034612 60.57447858 51.00590206 64.13936845 40.828125 64.09765625 C40.1457074 64.0962413 39.46328979 64.09482635 38.76019287 64.09336853 C36.59008316 64.08779084 34.4200783 64.07524254 32.25 64.0625 C30.77474108 64.05748211 29.29948053 64.05291971 27.82421875 64.04882812 C24.21607337 64.03868148 20.60815345 64.01910199 17 64 C17 72.58 17 81.16 17 90 C11.39 90 5.78 90 0 90 C0 60.3 0 30.6 0 0 Z " fill="#FCFCFC" transform="translate(324,94)"/>
<path d="M0 0 C0.33 0.66 0.66 1.32 1 2 C-1.73474438 0.93365378 -4.41964807 -0.19021926 -7.09375 -1.40234375 C-8.2178125 -1.90894531 -9.341875 -2.41554688 -10.5 -2.9375 C-11.6034375 -3.44152344 -12.706875 -3.94554687 -13.84375 -4.46484375 C-24.03116303 -8.52050869 -34.37115551 -9.55807471 -45.25 -9.5 C-46.52053223 -9.49355469 -47.79106445 -9.48710938 -49.10009766 -9.48046875 C-69.33941417 -9.08822393 -86.93187613 -1.61075783 -102 12 C-102.75667969 12.66386719 -103.51335937 13.32773438 -104.29296875 14.01171875 C-117.78521679 26.57506848 -127.63059315 45.77734571 -129.28564453 64.17529297 C-129.40011794 67.41474165 -129.41689564 70.63386645 -129.375 73.875 C-129.36484863 75.01686768 -129.35469727 76.15873535 -129.34423828 77.33520508 C-128.9092802 100.99658773 -119.88161415 121.31632772 -103 138 C-86.80821419 152.89974178 -67.50149369 160.41046328 -45.625 160.25 C-44.57828125 160.25773438 -43.5315625 160.26546875 -42.453125 160.2734375 C-31.49074542 160.2463699 -21.51013747 158.78211188 -11.4375 154.375 C-10.62756592 154.02888672 -9.81763184 153.68277344 -8.9831543 153.32617188 C-2.29629287 150.36046768 3.39638594 146.73473907 9 142 C9.66 142.33 10.32 142.66 11 143 C1.38410891 152.57157823 -9.37879267 158.65578944 -21.75 163.875 C-22.42232666 164.16133301 -23.09465332 164.44766602 -23.78735352 164.74267578 C-33.92006984 168.83712536 -43.83260484 169.38994042 -54.6875 169.375 C-55.35330078 169.37445618 -56.01910156 169.37391235 -56.70507812 169.37335205 C-66.79676442 169.3354111 -75.55007262 168.75200569 -85 165 C-86.76923828 164.34644531 -86.76923828 164.34644531 -88.57421875 163.6796875 C-101.08802446 158.72827897 -111.43894266 151.40328411 -121 142 C-122.14082031 140.87851562 -122.14082031 140.87851562 -123.3046875 139.734375 C-129.83281342 132.91259636 -134.49247925 125.2339636 -139 117 C-139.6496875 115.83017578 -139.6496875 115.83017578 -140.3125 114.63671875 C-150.34000459 94.46419976 -150.03720243 69.38013463 -143.8984375 48.19921875 C-135.81834971 24.34992736 -119.3036262 4.59425323 -96.9609375 -7.06396484 C-64.69569277 -22.92822134 -30.02905215 -19.22614785 0 0 Z " fill="#F0841E" transform="translate(255,64)"/>
<path d="M0 0 C1.40435792 2.62146812 1.07999464 3.73469116 0.22265625 6.578125 C-0.16019531 7.45984375 -0.54304688 8.3415625 -0.9375 9.25 C-1.31777344 10.14203125 -1.69804687 11.0340625 -2.08984375 11.953125 C-2.39019531 12.62859375 -2.69054687 13.3040625 -3 14 C-3.52207031 13.81824219 -4.04414063 13.63648437 -4.58203125 13.44921875 C-7.04693913 12.6074376 -9.52116894 11.79985537 -12 11 C-13.299375 10.57074219 -13.299375 10.57074219 -14.625 10.1328125 C-24.55853277 7.10077488 -33.45909035 6.66322289 -43 11 C-43.99 11.33 -44.98 11.66 -46 12 C-47.21468687 15.64406062 -47.92134277 19.24587199 -47 23 C-43.52560408 27.36593902 -40.00337362 29.07760176 -34.75 30.5 C-34.0583374 30.70375244 -33.3666748 30.90750488 -32.65405273 31.11743164 C-28.94636429 32.20312678 -25.21885906 33.21123502 -21.48828125 34.21484375 C-11.92212251 36.82751178 -3.27461874 39.31237275 3.0625 47.5 C6.23091313 53.26275837 5.87021646 59.65169958 5 66 C2.80023955 73.52762064 -1.25875516 78.18146008 -8 82 C-15.98766427 85.74009282 -23.18807699 86.62373963 -31.9375 86.5 C-33.57235352 86.52320313 -33.57235352 86.52320313 -35.24023438 86.546875 C-46.0059884 86.49570089 -57.26528295 83.61846731 -66 77 C-67.305239 73.08428299 -66.32239848 71.96107003 -64.5625 68.3125 C-64.08941406 67.31863281 -63.61632812 66.32476562 -63.12890625 65.30078125 C-62.75636719 64.54152344 -62.38382812 63.78226562 -62 63 C-57.47369548 64.76296281 -53.10761859 66.80159064 -48.71875 68.87890625 C-43.08507912 71.20198605 -37.6374055 71.21277148 -31.625 71.25 C-30.3875 71.2809375 -30.3875 71.2809375 -29.125 71.3125 C-23.63786273 71.34733897 -19.85294966 70.60830369 -15 68 C-12.37283645 65.04444101 -12.02446131 63.4566111 -11.8125 59.5 C-13.48843757 54.56039452 -16.45037519 53.25685903 -21 51 C-24.05882793 49.91263707 -27.14942967 49.15723864 -30.3125 48.4375 C-31.99048049 48.02446115 -33.66757546 47.60780766 -35.34375 47.1875 C-36.14425781 46.98769531 -36.94476563 46.78789062 -37.76953125 46.58203125 C-48.35683538 43.81931967 -58.01609934 39.73141836 -63.8125 29.9375 C-65.98377339 24.22230912 -66.00849318 17.541732 -64.34375 11.6953125 C-60.34217254 2.82974864 -53.7861344 -1.55399134 -44.96484375 -5.0546875 C-31.08477729 -9.48021594 -12.55106903 -7.80661372 0 0 Z " fill="#FAFAFA" transform="translate(498,99)"/>
<path d="M0 0 C22.11 0 44.22 0 67 0 C67 4.62 67 9.24 67 14 C50.5 14 34 14 17 14 C17 22.25 17 30.5 17 39 C33.83 39 50.66 39 68 39 C68 43.95 68 48.9 68 54 C45.56 54 23.12 54 0 54 C0 36.18 0 18.36 0 0 Z " fill="#F3F3F3" transform="translate(24,137)"/>
<path d="M0 0 C5.61 0 11.22 0 17 0 C17 25.41 17 50.82 17 77 C32.51 77 48.02 77 64 77 C64 81.62 64 86.24 64 91 C42.88 91 21.76 91 0 91 C0 60.97 0 30.94 0 0 Z " fill="#FAFAFA" transform="translate(164,93)"/>
<path d="M0 0 C21.78 0 43.56 0 66 0 C66 4.62 66 9.24 66 14 C49.83 14 33.66 14 17 14 C17 21.59 17 29.18 17 37 C31.52 37 46.04 37 61 37 C61 41.62 61 46.24 61 51 C40.87 51 20.74 51 0 51 C0 34.17 0 17.34 0 0 Z " fill="#FAFAFA" transform="translate(541,94)"/>
<path d="M0 0 C6.1565625 -0.0928125 6.1565625 -0.0928125 12.4375 -0.1875 C13.71294678 -0.21481201 14.98839355 -0.24212402 16.30249023 -0.27026367 C23.85207719 -0.32500921 30.99782675 -0.12488527 37.15625 4.68359375 C37.5996875 5.26238281 38.043125 5.84117188 38.5 6.4375 C38.9640625 7.01371094 39.428125 7.58992188 39.90625 8.18359375 C42.58579584 12.63355381 42.69618873 17.96091965 42 23 C40.23897041 28.03151313 37.34071164 31.17195775 32.6875 33.71484375 C26.17875858 36.82411513 19.95200977 36.55681813 12.875 36.3125 C8.62625 36.209375 4.3775 36.10625 0 36 C0 24.12 0 12.24 0 0 Z " fill="#161718" transform="translate(341,108)"/>
<path d="M0 0 C5.61 0 11.22 0 17 0 C17 25.41 17 50.82 17 77 C11.39 77 5.78 77 0 77 C0 51.59 0 26.18 0 0 Z " fill="#FFFFFF" transform="translate(262,108)"/>
<path d="M0 0 C22.44 0 44.88 0 68 0 C68 4.62 68 9.24 68 14 C45.56 14 23.12 14 0 14 C0 9.38 0 4.76 0 0 Z " fill="#FBFBFB" transform="translate(541,170)"/>
<path d="M0 0 C21.78 0 43.56 0 66 0 C66 4.62 66 9.24 66 14 C44.22 14 22.44 14 0 14 C0 9.38 0 4.76 0 0 Z " fill="#FEFEFE" transform="translate(24,100)"/>
<path d="M0 0 C16.5 0 33 0 50 0 C50 4.62 50 9.24 50 14 C33.5 14 17 14 0 14 C0 9.38 0 4.76 0 0 Z " fill="#FFFFFF" transform="translate(41,137)"/>
<path d="M0 0 C0.2475 0.53625 0.495 1.0725 0.75 1.625 C3.87289056 7.91824623 3.87289056 7.91824623 9.75 11.375 C10.8225 11.58125 11.895 11.7875 13 12 C12.67 12.66 12.34 13.32 12 14 C11.071875 14.268125 10.14375 14.53625 9.1875 14.8125 C4.68721071 16.48907836 2.98120762 19.1847659 0.75 23.3125 C0.37875 24.1478125 0.37875 24.1478125 0 25 C-0.309375 23.7625 -0.61875 22.525 -0.9375 21.25 C-1.97114471 18.39227638 -2.6207102 17.24478987 -5.203125 15.578125 C-7.44590886 14.60484144 -9.67115103 13.74210701 -12 13 C-9.82922592 11.90309081 -7.66544199 10.85312087 -5.4375 9.875 C-1.87070891 7.13131454 -1.32577332 4.25643013 0 0 Z " fill="#E36520" transform="translate(269,76)"/>
<path d="M0 0 C0.66 0.33 1.32 0.66 2 1 C0.46620188 2.44589269 -1.07743855 3.88134804 -2.625 5.3125 C-3.48351562 6.11300781 -4.34203125 6.91351563 -5.2265625 7.73828125 C-8.02200966 10.01794872 -10.72420916 11.51580738 -14 13 C-13.875 11.26171875 -13.875 11.26171875 -13 9 C-10.3125 6.89453125 -10.3125 6.89453125 -7 4.8125 C-5.906875 4.11769531 -4.81375 3.42289063 -3.6875 2.70703125 C-2.800625 2.14371094 -1.91375 1.58039063 -1 1 C-0.67 0.67 -0.34 0.34 0 0 Z " fill="#DD4221" transform="translate(264,206)"/>
<path d="M0 0 C2.25525345 1.07335592 4.50375548 2.15807558 6.75 3.25 C7.38421875 3.55035156 8.0184375 3.85070313 8.671875 4.16015625 C12.41687422 5.99364545 15.24803883 7.85887261 18 11 C13.86177782 9.37003104 9.77231222 7.63344645 5.6875 5.875 C4.71973633 5.45927734 4.71973633 5.45927734 3.73242188 5.03515625 C2.15470995 4.35732446 0.57732174 3.67873926 -1 3 C-0.67 2.01 -0.34 1.02 0 0 Z " fill="#C24120" transform="translate(238,55)"/>
<path d="M0 0 C0.66 0.33 1.32 0.66 2 1 C0.90716423 2.03295436 -0.19970579 3.05107835 -1.3125 4.0625 C-1.92738281 4.63097656 -2.54226563 5.19945312 -3.17578125 5.78515625 C-3.77777344 6.18605469 -4.37976563 6.58695313 -5 7 C-5.99 6.67 -6.98 6.34 -8 6 C-5.36 4.02 -2.72 2.04 0 0 Z " fill="#CD3920" transform="translate(264,206)"/>
</svg>
